<svg xmlns="http://www.w3.org/2000/svg" xmlns:xlink="http://www.w3.org/1999/xlink" width="205" height="40.95" viewBox="0 0 205 40.95">
  <defs>
    <clipPath id="clip-path">
      <path id="Path_183" data-name="Path 183" d="M0,7.306H168v-38.95H0Z" transform="translate(0 31.644)" fill="none"/>
    </clipPath>
    <clipPath id="clip-path-8">
      <path id="Path_181" data-name="Path 181" d="M0,3.323H26v-26H0Z" transform="translate(0 22.678)" fill="none"/>
    </clipPath>
  </defs>
  <g id="BIO_Type" data-name="BIO Type" transform="translate(37 33.644)">
    <g id="Group_956" data-name="Group 956" transform="translate(0 -31.644)" clip-path="url(#clip-path)">
      <g id="Group_955" data-name="Group 955" transform="translate(0.034 30.843)">
        <path id="Path_182" data-name="Path 182" d="M.217.818c0,1.737.819,2.734,2.333,2.734a2.605,2.605,0,0,0,2.075-.9l.787.691a3.617,3.617,0,0,1-2.9,1.222C.426,4.564-.939,3.309-.939.512-.939-2.044.3-3.541,2.309-3.541c2.042,0,3.247,1.48,3.247,3.826V.818ZM4.157-1.37A1.964,1.964,0,0,0,2.309-2.556,1.967,1.967,0,0,0,.457-1.37,3.385,3.385,0,0,0,.217-.051H4.4A3.3,3.3,0,0,0,4.157-1.37" transform="translate(0.939 3.541)" fill="#5588a4"/>
      </g>
    </g>
    <g id="Group_957" data-name="Group 957" transform="translate(7.865 -0.704)">
      <path id="Path_184" data-name="Path 184" d="M.959,0-.826,2.925-2.644,0h-1.4l2.574,3.874-2.686,4.04h1.4L-.826,4.84l1.9,3.074h1.4L-.215,3.874,2.357,0Z" transform="translate(4.154)" fill="#5588a4"/>
    </g>
    <g id="Group_970" data-name="Group 970" transform="translate(0 -31.644)" clip-path="url(#clip-path)">
      <g id="Group_958" data-name="Group 958" transform="translate(15.954 30.844)">
        <path id="Path_185" data-name="Path 185" d="M.658,1.52c-2,0-3.507-1.35-3.507-4.052S-1.337-6.584.658-6.584a3.13,3.13,0,0,1,2.6,1.172l-.788.742A2.171,2.171,0,0,0,.658-5.557a2.144,2.144,0,0,0-1.833.9,3.393,3.393,0,0,0-.516,2.125A3.383,3.383,0,0,0-1.175-.41a2.141,2.141,0,0,0,1.833.9,2.192,2.192,0,0,0,1.817-.9l.788.757A3.131,3.131,0,0,1,.658,1.52" transform="translate(2.849 6.584)" fill="#5588a4"/>
      </g>
      <g id="Group_959" data-name="Group 959" transform="translate(23.576 30.843)">
        <path id="Path_186" data-name="Path 186" d="M.217.818c0,1.737.82,2.734,2.334,2.734a2.607,2.607,0,0,0,2.075-.9l.789.691a3.623,3.623,0,0,1-2.9,1.222C.427,4.564-.941,3.309-.941.512c0-2.557,1.238-4.053,3.25-4.053,2.043,0,3.251,1.48,3.251,3.826V.818ZM4.16-1.37A1.968,1.968,0,0,0,2.309-2.556,1.963,1.963,0,0,0,.46-1.37,3.359,3.359,0,0,0,.217-.051H4.4A3.319,3.319,0,0,0,4.16-1.37" transform="translate(0.941 3.541)" fill="#5588a4"/>
      </g>
      <g id="Group_960" data-name="Group 960" transform="translate(32.551 27.399)">
        <path id="Path_187" data-name="Path 187" d="M.377,2.148A1.885,1.885,0,0,1-1.633.042V-9.305h1.16v9.3c0,.769.256,1.158,1.06,1.158h.628v1Z" transform="translate(1.633 9.305)" fill="#5588a4"/>
      </g>
      <g id="Group_961" data-name="Group 961" transform="translate(37.051 27.399)">
        <path id="Path_188" data-name="Path 188" d="M.377,2.148A1.886,1.886,0,0,1-1.634.042V-9.305H-.473v9.3C-.473.761-.216,1.15.588,1.15h.627v1Z" transform="translate(1.634 9.305)" fill="#5588a4"/>
      </g>
      <g id="Group_962" data-name="Group 962" transform="translate(41.525 30.843)">
        <path id="Path_189" data-name="Path 189" d="M.217.818c0,1.737.82,2.734,2.33,2.734a2.6,2.6,0,0,0,2.077-.9l.787.691A3.614,3.614,0,0,1,2.519,4.564C.427,4.564-.941,3.309-.941.512-.941-2.044.3-3.541,2.307-3.541c2.042,0,3.25,1.48,3.25,3.826V.818ZM4.157-1.37a1.964,1.964,0,0,0-1.85-1.187A1.964,1.964,0,0,0,.457-1.37,3.341,3.341,0,0,0,.217-.051H4.4A3.317,3.317,0,0,0,4.157-1.37" transform="translate(0.941 3.541)" fill="#5588a4"/>
      </g>
      <g id="Group_963" data-name="Group 963" transform="translate(50.595 30.843)">
        <path id="Path_190" data-name="Path 190" d="M.95,1.5V-3.374A1.841,1.841,0,0,0-1-5.479a1.86,1.86,0,0,0-1.961,2.1V1.5h-1.16V-6.411h1.16v.868A2.858,2.858,0,0,1-.738-6.507a2.765,2.765,0,0,1,2.027.74,2.924,2.924,0,0,1,.82,2.2V1.5Z" transform="translate(4.116 6.507)" fill="#5588a4"/>
      </g>
      <g id="Group_964" data-name="Group 964" transform="translate(59.183 30.844)">
        <path id="Path_191" data-name="Path 191" d="M.658,1.52c-1.993,0-3.506-1.35-3.506-4.052S-1.335-6.584.658-6.584a3.13,3.13,0,0,1,2.6,1.172l-.788.742A2.17,2.17,0,0,0,.658-5.557a2.139,2.139,0,0,0-1.832.9A3.409,3.409,0,0,0-1.69-2.532,3.4,3.4,0,0,0-1.174-.41a2.136,2.136,0,0,0,1.832.9,2.191,2.191,0,0,0,1.817-.9l.788.757A3.131,3.131,0,0,1,.658,1.52" transform="translate(2.848 6.584)" fill="#5588a4"/>
      </g>
      <g id="Group_965" data-name="Group 965" transform="translate(66.806 30.843)">
        <path id="Path_192" data-name="Path 192" d="M.217.818c0,1.737.821,2.734,2.334,2.734a2.6,2.6,0,0,0,2.074-.9l.79.691a3.622,3.622,0,0,1-2.9,1.222C.428,4.564-.94,3.309-.94.512-.94-2.044.3-3.541,2.308-3.541c2.046,0,3.251,1.48,3.251,3.826V.818ZM4.16-1.37A1.966,1.966,0,0,0,2.308-2.556,1.963,1.963,0,0,0,.46-1.37,3.315,3.315,0,0,0,.217-.051H4.4A3.315,3.315,0,0,0,4.16-1.37" transform="translate(0.94 3.541)" fill="#5588a4"/>
      </g>
      <g id="Group_966" data-name="Group 966" transform="translate(79.658 27.369)">
        <path id="Path_193" data-name="Path 193" d="M.407.845V7.824H-.751V.845H-1.763V-.039H-.751V-1.533A1.93,1.93,0,0,1,1.26-3.658H2.1v1H1.469C.728-2.66.407-2.224.407-1.5V-.039H2.1V.845Z" transform="translate(1.763 3.658)" fill="#5588a4"/>
      </g>
      <g id="Group_967" data-name="Group 967" transform="translate(84.631 30.844)">
        <path id="Path_194" data-name="Path 194" d="M1.032,1.351a3.107,3.107,0,0,1-2.267.9,3.128,3.128,0,0,1-2.271-.9A4.257,4.257,0,0,1-4.47-1.8a4.266,4.266,0,0,1,.964-3.155,3.131,3.131,0,0,1,2.271-.9,3.11,3.11,0,0,1,2.267.9A4.256,4.256,0,0,1,2-1.8a4.247,4.247,0,0,1-.964,3.151m-.821-5.6a2.026,2.026,0,0,0-1.446-.579,1.992,1.992,0,0,0-1.433.579A3.457,3.457,0,0,0-3.31-1.8,3.459,3.459,0,0,0-2.668.645a2,2,0,0,0,1.433.577A2.03,2.03,0,0,0,.211.645,3.447,3.447,0,0,0,.839-1.8,3.446,3.446,0,0,0,.211-4.247" transform="translate(4.47 5.853)" fill="#5588a4"/>
      </g>
      <g id="Group_968" data-name="Group 968" transform="translate(93.402 30.844)">
        <path id="Path_195" data-name="Path 195" d="M.829.3A1.652,1.652,0,0,0-.537-.277a1.934,1.934,0,0,0-1.9,2.121V6.7H-3.592V-1.21h1.156v.966A2.665,2.665,0,0,1-.213-1.3a2.438,2.438,0,0,1,1.9.74Z" transform="translate(3.592 1.305)" fill="#5588a4"/>
      </g>
      <g id="Group_969" data-name="Group 969" transform="translate(103.756 27.399)">
        <path id="Path_196" data-name="Path 196" d="M.377,2.148A1.884,1.884,0,0,1-1.632.042V-9.305H-.475v9.3C-.475.761-.216,1.15.586,1.15h.628v1Z" transform="translate(1.632 9.305)" fill="#5588a4"/>
      </g>
    </g>
    <path id="Path_198" data-name="Path 198" d="M88.346-8.094h1.3V-9.4h-1.3Zm0-1.3.063,11.472h1.157V-5.842H88.409Z" transform="translate(20.398 5.136)" fill="#5588a4"/>
    <g id="Group_973" data-name="Group 973" transform="translate(0 -31.644)" clip-path="url(#clip-path)">
      <g id="Group_971" data-name="Group 971" transform="translate(112.228 27.369)">
        <path id="Path_199" data-name="Path 199" d="M.408.845V7.824H-.751V.845H-1.765V-.039H-.751V-1.533A1.931,1.931,0,0,1,1.261-3.658H2.1v1H1.469C.731-2.66.408-2.224.408-1.5V-.039H2.1V.845Z" transform="translate(1.765 3.658)" fill="#5588a4"/>
      </g>
      <g id="Group_972" data-name="Group 972" transform="translate(117.087 30.843)">
        <path id="Path_200" data-name="Path 200" d="M.217.818c0,1.737.822,2.734,2.335,2.734a2.6,2.6,0,0,0,2.073-.9l.789.691a3.62,3.62,0,0,1-2.9,1.222C.427,4.564-.939,3.309-.939.512-.939-2.044.3-3.541,2.309-3.541c2.043,0,3.25,1.48,3.25,3.826V.818ZM4.161-1.37A1.969,1.969,0,0,0,2.309-2.556,1.961,1.961,0,0,0,.462-1.37,3.29,3.29,0,0,0,.217-.051H4.4a3.341,3.341,0,0,0-.24-1.318" transform="translate(0.939 3.541)" fill="#5588a4"/>
      </g>
    </g>
    <g id="Group_974" data-name="Group 974" transform="translate(148.396 -31.101)">
      <path id="Path_202" data-name="Path 202" d="M2.176,0-2.845,7.191V0h-6.58V20.855h6.58V15.392l1.774-2.417,3.634,7.88h7.617L3.523,7.64,9.331,0Z" transform="translate(9.425)" fill="#002e54"/>
    </g>
    <g id="Group_976" data-name="Group 976" transform="translate(0 -31.644)" clip-path="url(#clip-path)">
      <g id="Group_975" data-name="Group 975" transform="translate(0 0.542)">
        <path id="Path_203" data-name="Path 203" d="M0,3.912V-16.945H11.082a7.536,7.536,0,0,1,4.252,1.079A5.582,5.582,0,0,1,17.71-11.46a4.352,4.352,0,0,1-3.321,4.526v.06A4.7,4.7,0,0,1,18.5-2.142c0,5.156-3.747,6.055-7.659,6.055ZM6.422-8.943h3.15c1.054,0,1.848-.42,1.848-1.766,0-1.59-1.125-1.77-2.265-1.77H6.422Zm0,8.211H9.683c1.079,0,2.155-.452,2.155-1.857,0-1.62-1.268-1.918-2.433-1.918H6.422Z" transform="translate(0 16.945)" fill="#002e54"/>
      </g>
    </g>
    <path id="Path_205" data-name="Path 205" d="M17.28-10.347h6.575V-31.2H17.28Z" transform="translate(3.99 0.102)" fill="#002e54"/>
    <g id="Group_978" data-name="Group 978" transform="translate(0 -31.644)" clip-path="url(#clip-path)">
      <g id="Group_977" data-name="Group 977" transform="translate(30.775 0)">
        <path id="Path_206" data-name="Path 206" d="M3.815,2.064c0,6.084-3.721,10.912-10.184,10.912-6.438,0-10.155-4.828-10.155-10.912,0-6.36,3.689-11,10.155-11,6.5,0,10.184,4.643,10.184,11m-13.376.03c0,2.078.222,6.022,3.192,6.022,3,0,3.19-3.944,3.19-6.022s-.3-6.236-3.19-6.236S-9.561.016-9.561,2.093" transform="translate(16.524 8.939)" fill="#002e54"/>
      </g>
    </g>
    <g id="Group_979" data-name="Group 979" transform="translate(51.534 -31.102)">
      <path id="Path_208" data-name="Path 208" d="M0,0V5.034H5.183V20.857H11.76V5.034h5.077V0Z" fill="#002e54"/>
    </g>
    <g id="Group_982" data-name="Group 982" transform="translate(0 -31.644)" clip-path="url(#clip-path)">
      <g id="Group_980" data-name="Group 980" transform="translate(70.765 0.543)">
        <path id="Path_209" data-name="Path 209" d="M3.614,3.912H-3.961L-7.543-3.863H-9.075V3.912h-6.577V-16.945H-5.47A10.183,10.183,0,0,1,0-15.657,5.688,5.688,0,0,1,2.6-10.68,5.731,5.731,0,0,1-1.05-4.973ZM-9.075-8.33H-7.3c1.417,0,3.136-.4,3.136-2.2a1.941,1.941,0,0,0-1.029-1.707,4.287,4.287,0,0,0-1.857-.272H-9.075Z" transform="translate(15.652 16.945)" fill="#002e54"/>
      </g>
      <g id="Group_981" data-name="Group 981" transform="translate(91.02 0)">
        <path id="Path_210" data-name="Path 210" d="M3.815,2.064C3.815,8.148.1,12.976-6.367,12.976c-6.44,0-10.155-4.828-10.155-10.912,0-6.36,3.689-11,10.155-11,6.492,0,10.182,4.643,10.182,11m-13.372.03c0,2.078.224,6.022,3.19,6.022,2.995,0,3.193-3.944,3.193-6.022s-.309-6.236-3.193-6.236S-9.558.016-9.558,2.093" transform="translate(16.522 8.939)" fill="#002e54"/>
      </g>
    </g>
    <path id="Path_212" data-name="Path 212" d="M111.761-10.347h6.575V-31.2h-6.575Z" transform="translate(25.805 0.102)" fill="#002e54"/>
    <g id="Group_984" data-name="Group 984" transform="translate(0 -31.644)" clip-path="url(#clip-path)">
      <g id="Group_983" data-name="Group 983" transform="translate(114.286 0.543)">
        <path id="Path_213" data-name="Path 213" d="M3.566,3.912H-3.311L-9.154-7.7c-.111-.22-.5-1.219-.5-1.219s.16,1.424.16,2.08V3.912h-5.948V-16.945H-7.8l4.983,10.05c.121.252.618,1.427.618,1.427s-.182-1.5-.182-2.137l.006-9.34H3.566Z" transform="translate(15.446 16.945)" fill="#002e54"/>
      </g>
    </g>
  </g>
  <g id="BIO_Pill" data-name="BIO Pill" transform="translate(0 22.678)">
    <g id="Group_953" data-name="Group 953" transform="translate(0 -22.678)" clip-path="url(#clip-path-8)">
      <g id="Group_951" data-name="Group 951" transform="translate(0.972 18.077)">
        <path id="Path_179" data-name="Path 179" d="M2.514.715A12.628,12.628,0,0,1-4.264,3.044V-4.881H6.8a12.032,12.032,0,0,1-4.29,5.6m-15.305,0a12.108,12.108,0,0,1-4.367-5.6H-5.964V3.044A12.838,12.838,0,0,1-12.791.715" transform="translate(17.158 4.881)" fill="#5588a4"/>
      </g>
      <g id="Group_952" data-name="Group 952" transform="translate(0 0)">
        <path id="Path_180" data-name="Path 180" d="M2.281,1.034a2.168,2.168,0,0,1,1.886-1.1A2.259,2.259,0,0,1,6.185.981a3.811,3.811,0,0,1,.534,2.2c-.087,1.476-.855,3.1-2.553,3.113A2.183,2.183,0,0,1,2.432,5.245a4.158,4.158,0,0,1-.6-2.063,4.024,4.024,0,0,1,.451-2.149M.933,6.483a4.6,4.6,0,0,0,3.21,1.455,4.708,4.708,0,0,0,4.639-4.76A4.744,4.744,0,0,0,7.508-.184,4.556,4.556,0,0,0,4.263-1.646,4.321,4.321,0,0,0,.981-.241,5.012,5.012,0,0,0-.349,3.178,4.724,4.724,0,0,0,.933,6.483M-10.326,2.4V.119h2.16A1.154,1.154,0,0,1-6.938,1.227a1.143,1.143,0,0,1-.39.84,1.348,1.348,0,0,1-.866.334Zm0,4.043V3.774h2.1a1.44,1.44,0,0,1,1.5,1.278C-6.662,6-7.4,6.433-8.256,6.444ZM-12.3-1.318V7.819h4.43c1.869.014,3.233-.932,3.233-2.6a2.4,2.4,0,0,0-1.8-2.283,2.212,2.212,0,0,0,1.414-2c0-1.515-1.121-2.254-2.584-2.252ZM-15,9.441l-.1-.1a12.135,12.135,0,0,1-.465-3.377A12.989,12.989,0,0,1-9.728-5.01a12.577,12.577,0,0,1,6.3-2.014V7.758h1.76L-1.7-7.054A12.516,12.516,0,0,1,4.624-5.059,13,13,0,0,1,10.433,5.961a12.672,12.672,0,0,1-.515,3.48Z" transform="translate(15.567 7.054)" fill="#5588a4"/>
      </g>
    </g>
  </g>
</svg>
